<?xml version="1.0" standalone="no"?>
<!DOCTYPE svg PUBLIC "-//W3C//DTD SVG 20010904//EN"
 "http://www.w3.org/TR/2001/REC-SVG-20010904/DTD/svg10.dtd">
<svg version="1.0" xmlns="http://www.w3.org/2000/svg"
 width="327.000000pt" height="244.000000pt" viewBox="0 0 327.000000 244.000000"
 preserveAspectRatio="xMidYMid meet">

<g transform="translate(0.000000,244.000000) scale(0.100000,-0.100000)"
fill="#000000" stroke="none">
<path d="M1075 1956 l-560 -313 0 -99 0 -99 534 -297 c293 -164 535 -298 537
-298 3 0 3 50 2 111 l-3 111 -418 233 c-230 128 -420 235 -422 237 -2 2 53 36
123 75 70 39 269 150 443 247 175 97 322 176 329 176 6 0 132 -68 280 -150
l269 -150 195 2 196 3 -188 105 c-103 57 -314 175 -470 262 -155 87 -283 158
-285 158 -1 -1 -254 -142 -562 -314z"/>
<path d="M1440 1545 l0 -95 456 0 c255 0 453 -4 450 -9 -3 -4 -145 -86 -315
-181 -171 -95 -317 -177 -326 -184 -13 -9 -15 -30 -13 -119 l3 -107 495 276
c272 151 514 286 538 300 l42 25 0 94 0 95 -665 0 -665 0 0 -95z"/>
<path d="M473 680 c-178 -24 -296 -143 -280 -281 12 -98 77 -171 192 -215 76
-29 279 -27 355 4 30 12 56 22 58 22 1 0 2 -11 2 -25 0 -24 3 -25 60 -25 l60
0 0 145 0 145 -185 0 -185 0 0 -55 0 -55 107 0 c105 0 106 0 88 -20 -31 -34
-103 -55 -190 -55 -178 1 -284 110 -215 223 54 89 299 112 399 38 25 -19 43
-23 91 -21 33 1 62 4 66 7 12 13 -32 70 -81 103 -84 57 -217 82 -342 65z"/>
<path d="M1234 676 c-111 -21 -186 -67 -229 -140 -89 -153 7 -318 214 -366 76
-18 231 -8 302 19 168 64 234 230 143 363 -71 102 -257 156 -430 124z m222
-121 c55 -16 109 -64 119 -107 16 -62 -41 -142 -122 -169 -21 -7 -74 -13 -118
-14 -68 0 -89 4 -137 28 -61 30 -87 60 -95 111 -7 42 19 99 55 122 66 44 204
57 298 29z"/>
<path d="M1710 625 l0 -55 150 0 150 0 0 -205 0 -205 65 0 65 0 0 205 0 205
150 0 150 0 0 55 0 55 -365 0 -365 0 0 -55z"/>
<path d="M2490 625 l0 -55 212 -2 212 -3 -196 -200 -196 -200 76 -3 76 -3 203
203 203 203 0 57 0 58 -295 0 -295 0 0 -55z"/>
</g>
</svg>
