<?xml version="1.0" encoding="UTF-8"?>
<!DOCTYPE svg PUBLIC "-//W3C//DTD SVG 1.1//EN" "http://www.w3.org/Graphics/SVG/1.1/DTD/svg11.dtd">
<svg xmlns="http://www.w3.org/2000/svg" version="1.1" width="327px" height="244px" style="shape-rendering:geometricPrecision; text-rendering:geometricPrecision; image-rendering:optimizeQuality; fill-rule:evenodd; clip-rule:evenodd" xmlns:xlink="http://www.w3.org/1999/xlink">
<g><path style="opacity:1" fill="#232321" d="M 250.5,64.5 C 250.36,66.1238 251.027,67.2904 252.5,68C 241.326,68.1695 230.326,68.6695 219.5,69.5C 216.309,68.9078 213.309,67.7411 210.5,66C 194.833,57.1667 179.167,48.3333 163.5,39.5C 156.275,43.2742 149.275,47.2742 142.5,51.5C 127.997,59.25 113.664,67.25 99.5,75.5C 91.2207,79.9751 82.8873,84.4751 74.5,89C 78.3944,91.4458 82.3944,93.6124 86.5,95.5C 90.8871,98.5307 95.5537,101.197 100.5,103.5C 100.821,105.048 101.821,105.715 103.5,105.5C 107.527,107.513 111.527,109.513 115.5,111.5C 120.502,115.003 125.835,118.003 131.5,120.5C 140.104,125.473 148.771,130.473 157.5,135.5C 158.665,143.479 158.832,151.479 158,159.5C 153.353,156.428 148.52,153.762 143.5,151.5C 113.057,134.108 82.3906,116.941 51.5,100C 50.1879,92.8907 50.1879,85.7241 51.5,78.5C 53.2433,76.9617 55.2433,75.9617 57.5,75.5C 59.0269,75.573 60.0269,74.9063 60.5,73.5C 68.2077,68.6458 76.2077,64.3125 84.5,60.5C 86.8477,60.4077 88.5144,59.4077 89.5,57.5C 90.8333,56.5 92.1667,55.5 93.5,54.5C 103.335,49.4169 113.002,44.0836 122.5,38.5C 136.017,30.9077 149.684,23.5743 163.5,16.5C 192.718,32.2718 221.718,48.2718 250.5,64.5 Z"/></g>
<g><path style="opacity:0.533" fill="#f5f6f4" d="M 122.5,38.5 C 121.833,37.1667 121.833,37.1667 122.5,38.5 Z"/></g>
<g><path style="opacity:0.133" fill="#fcfdfc" d="M 159.5,43.5 C 160.833,44.1667 160.833,44.1667 159.5,43.5 Z"/></g>
<g><path style="opacity:0.533" fill="#f4f5f4" d="M 142.5,51.5 C 143.833,52.1667 143.833,52.1667 142.5,51.5 Z"/></g>
<g><path style="opacity:0.667" fill="#f2f3f1" d="M 93.5,54.5 C 92.8333,53.1667 92.8333,53.1667 93.5,54.5 Z"/></g>
<g><path style="opacity:1" fill="#6d6d6c" d="M 89.5,57.5 C 88.5144,59.4077 86.8477,60.4077 84.5,60.5C 85.6594,58.7497 87.326,57.7497 89.5,57.5 Z"/></g>
<g><path style="opacity:1" fill="#494948" d="M 250.5,64.5 C 253.022,66.1723 255.688,67.6723 258.5,69C 245.504,69.4999 232.504,69.6666 219.5,69.5C 230.326,68.6695 241.326,68.1695 252.5,68C 251.027,67.2904 250.36,66.1238 250.5,64.5 Z"/></g>
<g><path style="opacity:1" fill="#868684" d="M 60.5,73.5 C 60.0269,74.9063 59.0269,75.573 57.5,75.5C 57.9731,74.0937 58.9731,73.427 60.5,73.5 Z"/></g>
<g><path style="opacity:1" fill="#e7e8e7" d="M 99.5,75.5 C 100.833,76.1667 100.833,76.1667 99.5,75.5 Z"/></g>
<g><path style="opacity:1" fill="#20201e" d="M 143.5,79.5 C 187.5,79.5 231.5,79.5 275.5,79.5C 275.5,86.1667 275.5,92.8333 275.5,99.5C 262.167,107.167 248.833,114.833 235.5,122.5C 229.835,124.997 224.502,127.997 219.5,131.5C 209.665,136.583 199.998,141.916 190.5,147.5C 185.167,150.167 179.833,152.833 174.5,155.5C 172.011,155.241 170.344,156.241 169.5,158.5C 169.19,159.738 168.69,159.738 168,158.5C 167.333,151.167 167.333,143.833 168,136.5C 169.741,135.242 171.574,134.242 173.5,133.5C 175.027,133.573 176.027,132.906 176.5,131.5C 190.535,123.485 204.535,115.485 218.5,107.5C 223.14,105.18 227.807,102.847 232.5,100.5C 233.756,100.539 234.756,100.039 235.5,99C 204.835,98.5 174.168,98.3334 143.5,98.5C 143.5,92.1667 143.5,85.8333 143.5,79.5 Z"/></g>
<g><path style="opacity:1" fill="#9f9f9e" d="M 143.5,79.5 C 187.664,78.5013 231.997,78.1679 276.5,78.5C 276.825,85.6866 276.491,92.6866 275.5,99.5C 275.5,92.8333 275.5,86.1667 275.5,79.5C 231.5,79.5 187.5,79.5 143.5,79.5 Z"/></g>
<g><path style="opacity:0.667" fill="#f1f2f1" d="M 86.5,94.5 C 87.8333,95.1667 87.8333,95.1667 86.5,94.5 Z"/></g>
<g><path style="opacity:1" fill="#adadad" d="M 143.5,79.5 C 143.5,85.8333 143.5,92.1667 143.5,98.5C 174.168,98.3334 204.835,98.5 235.5,99C 234.756,100.039 233.756,100.539 232.5,100.5C 202.671,99.5019 172.671,99.1686 142.5,99.5C 142.176,92.6457 142.509,85.979 143.5,79.5 Z"/></g>
<g><path style="opacity:0.133" fill="#fcfdfc" d="M 51.5,101.5 C 52.8333,102.167 52.8333,102.167 51.5,101.5 Z"/></g>
<g><path style="opacity:0.4" fill="#f8f9f7" d="M 103.5,102.5 C 104.833,103.167 104.833,103.167 103.5,102.5 Z"/></g>
<g><path style="opacity:1" fill="#888886" d="M 100.5,103.5 C 101.71,103.932 102.71,104.599 103.5,105.5C 101.821,105.715 100.821,105.048 100.5,103.5 Z"/></g>
<g><path style="opacity:0.4" fill="#f8f9f7" d="M 218.5,107.5 C 217.833,106.167 217.833,106.167 218.5,107.5 Z"/></g>
<g><path style="opacity:0.267" fill="#f9faf9" d="M 115.5,110.5 C 116.833,111.167 116.833,111.167 115.5,110.5 Z"/></g>
<g><path style="opacity:0.133" fill="#fcfdfc" d="M 118.5,110.5 C 119.833,111.167 119.833,111.167 118.5,110.5 Z"/></g>
<g><path style="opacity:0.267" fill="#f9faf9" d="M 69.5,111.5 C 70.8333,112.167 70.8333,112.167 69.5,111.5 Z"/></g>
<g><path style="opacity:0.133" fill="#fcfdfc" d="M 129.5,117.5 C 130.833,118.167 130.833,118.167 129.5,117.5 Z"/></g>
<g><path style="opacity:0.267" fill="#f9faf9" d="M 131.5,119.5 C 132.833,120.167 132.833,120.167 131.5,119.5 Z"/></g>
<g><path style="opacity:0.267" fill="#f9faf9" d="M 235.5,122.5 C 236.833,123.167 236.833,123.167 235.5,122.5 Z"/></g>
<g><path style="opacity:0.267" fill="#f9faf9" d="M 233.5,124.5 C 234.833,125.167 234.833,125.167 233.5,124.5 Z"/></g>
<g><path style="opacity:0.133" fill="#fcfdfc" d="M 174.5,131.5 C 173.833,130.167 173.833,130.167 174.5,131.5 Z"/></g>
<g><path style="opacity:0.133" fill="#fcfdfc" d="M 219.5,131.5 C 220.833,132.167 220.833,132.167 219.5,131.5 Z"/></g>
<g><path style="opacity:1" fill="#9d9d9b" d="M 174.5,131.5 C 175.167,131.5 175.833,131.5 176.5,131.5C 176.027,132.906 175.027,133.573 173.5,133.5C 173.833,132.833 174.167,132.167 174.5,131.5 Z"/></g>
<g><path style="opacity:0.8" fill="#edeeed" d="M 158.5,133.5 C 159.833,134.167 159.833,134.167 158.5,133.5 Z"/></g>
<g><path style="opacity:0.267" fill="#f9faf9" d="M 207.5,139.5 C 208.833,140.167 208.833,140.167 207.5,139.5 Z"/></g>
<g><path style="opacity:0.667" fill="#f1f2f1" d="M 190.5,147.5 C 191.833,148.167 191.833,148.167 190.5,147.5 Z"/></g>
<g><path style="opacity:0.4" fill="#f8f9f7" d="M 143.5,151.5 C 142.833,152.167 142.833,152.167 143.5,151.5 Z"/></g>
<g><path style="opacity:1" fill="#636363" d="M 174.5,155.5 C 173.101,156.89 171.434,157.89 169.5,158.5C 170.344,156.241 172.011,155.241 174.5,155.5 Z"/></g>
<g><path style="opacity:1" fill="#c4c4c4" d="M 243.5,175.5 C 219.167,175.5 194.833,175.5 170.5,175.5C 170.5,179.167 170.5,182.833 170.5,186.5C 180.5,186.5 190.5,186.5 200.5,186.5C 200.5,199.833 200.5,213.167 200.5,226.5C 200.5,226.833 200.5,227.167 200.5,227.5C 199.504,214.344 199.171,201.01 199.5,187.5C 189.5,187.5 179.5,187.5 169.5,187.5C 169.5,183.167 169.5,178.833 169.5,174.5C 194.339,174.169 219.006,174.502 243.5,175.5 Z"/></g>
<g><path style="opacity:1" fill="#bcbcbc" d="M 307.5,186.5 C 307.5,182.833 307.5,179.167 307.5,175.5C 287.833,175.5 268.167,175.5 248.5,175.5C 248.5,179.167 248.5,182.833 248.5,186.5C 262.913,186.168 276.58,186.501 289.5,187.5C 275.5,187.5 261.5,187.5 247.5,187.5C 247.5,183.167 247.5,178.833 247.5,174.5C 267.833,174.5 288.167,174.5 308.5,174.5C 308.817,178.702 308.483,182.702 307.5,186.5 Z"/></g>
<g><path style="opacity:1" fill="#1e1e1c" d="M 243.5,175.5 C 244.833,179.167 244.833,182.833 243.5,186.5C 233.167,186.5 222.833,186.5 212.5,186.5C 212.5,199.833 212.5,213.167 212.5,226.5C 208.5,226.5 204.5,226.5 200.5,226.5C 200.5,213.167 200.5,199.833 200.5,186.5C 190.5,186.5 180.5,186.5 170.5,186.5C 170.5,182.833 170.5,179.167 170.5,175.5C 194.833,175.5 219.167,175.5 243.5,175.5 Z"/></g>
<g><path style="opacity:1" fill="#222220" d="M 307.5,186.5 C 295.123,200.382 282.123,213.882 268.5,227C 262.804,227.83 257.137,227.663 251.5,226.5C 258.188,219.48 264.855,212.48 271.5,205.5C 277.833,199.833 283.833,193.833 289.5,187.5C 276.58,186.501 262.913,186.168 248.5,186.5C 248.5,182.833 248.5,179.167 248.5,175.5C 268.167,175.5 287.833,175.5 307.5,175.5C 307.5,179.167 307.5,182.833 307.5,186.5 Z"/></g>
<g><path style="opacity:1" fill="#888886" d="M 32.5,179.5 C 32.0269,180.906 31.0269,181.573 29.5,181.5C 29.9731,180.094 30.9731,179.427 32.5,179.5 Z"/></g>
<g><path style="opacity:1" fill="#282826" d="M 87.5,187.5 C 87.427,189.027 88.0937,190.027 89.5,190.5C 84.9443,192.442 79.9443,193.108 74.5,192.5C 62.5582,185.14 50.2248,184.64 37.5,191C 35.5359,192.451 34.2026,194.284 33.5,196.5C 30.4929,205.639 33.8262,211.806 43.5,215C 52.2671,217.193 60.9337,216.86 69.5,214C 71.2331,212.811 72.8998,211.644 74.5,210.5C 68.5922,209.501 61.9255,209.167 54.5,209.5C 54.5,205.833 54.5,202.167 54.5,198.5C 66.6597,197.34 78.9931,197.173 91.5,198C 92.4856,207.75 92.819,217.584 92.5,227.5C 88.1667,227.5 83.8333,227.5 79.5,227.5C 79.7852,225.712 79.4519,224.045 78.5,222.5C 77.8933,222.624 77.56,222.957 77.5,223.5C 74.3724,225.154 71.0391,226.321 67.5,227C 59.1667,227.667 50.8333,227.667 42.5,227C 36.5243,225.737 31.191,223.237 26.5,219.5C 17.2098,209.487 16.0432,198.487 23,186.5C 24.7772,184.21 26.9438,182.543 29.5,181.5C 31.0269,181.573 32.0269,180.906 32.5,179.5C 48.1929,172.745 63.8596,172.911 79.5,180C 82.6657,182 85.3324,184.5 87.5,187.5 Z"/></g>
<g><path style="opacity:0.133" fill="#fcfdfc" d="M 166.5,183.5 C 167.833,184.167 167.833,184.167 166.5,183.5 Z"/></g>
<g><path style="opacity:0.267" fill="#fafbf9" d="M 166.5,186.5 C 167.833,187.167 167.833,187.167 166.5,186.5 Z"/></g>
<g><path style="opacity:1" fill="#989897" d="M 87.5,187.5 C 88.9063,187.973 89.573,188.973 89.5,190.5C 88.0937,190.027 87.427,189.027 87.5,187.5 Z"/></g>
<g><path style="opacity:1" fill="#9d9d9d" d="M 100.5,188.5 C 100.573,190.027 99.9063,191.027 98.5,191.5C 98.427,189.973 99.0937,188.973 100.5,188.5 Z"/></g>
<g><path style="opacity:1" fill="#858583" d="M 89.5,190.5 C 90.404,191.209 90.7373,192.209 90.5,193.5C 84.9738,193.821 79.6405,193.488 74.5,192.5C 79.9443,193.108 84.9443,192.442 89.5,190.5 Z"/></g>
<g><path style="opacity:1" fill="#6a6a69" d="M 243.5,186.5 C 233.681,187.494 223.681,187.827 213.5,187.5C 213.5,200.833 213.5,214.167 213.5,227.5C 209.167,227.5 204.833,227.5 200.5,227.5C 200.5,227.167 200.5,226.833 200.5,226.5C 204.5,226.5 208.5,226.5 212.5,226.5C 212.5,213.167 212.5,199.833 212.5,186.5C 222.833,186.5 233.167,186.5 243.5,186.5 Z"/></g>
<g><path style="opacity:0.8" fill="#edeeed" d="M 33.5,196.5 C 34.8333,197.167 34.8333,197.167 33.5,196.5 Z"/></g>
<g><path style="opacity:0.267" fill="#f9faf9" d="M 271.5,205.5 C 270.833,204.167 270.833,204.167 271.5,205.5 Z"/></g>
<g><path style="opacity:1" fill="#aeaeae" d="M 54.5,198.5 C 54.5,202.167 54.5,205.833 54.5,209.5C 61.9255,209.167 68.5922,209.501 74.5,210.5C 67.5,210.5 60.5,210.5 53.5,210.5C 53.1832,206.298 53.5166,202.298 54.5,198.5 Z"/></g>
<g><path style="opacity:0.4" fill="#f7f8f7" d="M 65.5,212.5 C 66.8333,213.167 66.8333,213.167 65.5,212.5 Z"/></g>
<g><path style="opacity:1" fill="#272725" d="M 166.5,187.5 C 174.49,208.345 167.49,221.511 145.5,227C 137.167,227.667 128.833,227.667 120.5,227C 102.925,223.105 95.0915,212.272 97,194.5C 97.5133,193.473 98.0133,192.473 98.5,191.5C 99.9063,191.027 100.573,190.027 100.5,188.5C 106.161,180.193 114.161,175.693 124.5,175C 140.773,172.075 154.773,176.241 166.5,187.5 Z M 147.5,189.5 C 152.506,191.164 155.506,194.164 156.5,198.5C 156.632,201.57 156.299,204.57 155.5,207.5C 152.037,212.076 147.37,214.909 141.5,216C 132.351,217.556 123.684,216.223 115.5,212C 113.192,209.872 111.526,207.372 110.5,204.5C 110.216,202.585 110.549,200.919 111.5,199.5C 111.167,198.833 110.833,198.167 110.5,197.5C 110.5,196.833 110.833,196.5 111.5,196.5C 115.283,190.268 120.95,187.101 128.5,187C 135.144,186.333 141.477,187.167 147.5,189.5 Z"/></g>
<g><path style="opacity:1" fill="#646464" d="M 156.5,198.5 C 157.21,200.893 157.877,203.393 158.5,206C 157.473,206.513 156.473,207.013 155.5,207.5C 156.299,204.57 156.632,201.57 156.5,198.5 Z"/></g>
<g><path style="opacity:1" fill="#c4c4c2" d="M 110.5,197.5 C 110.833,198.167 111.167,198.833 111.5,199.5C 110.549,200.919 110.216,202.585 110.5,204.5C 109.167,202.167 109.167,199.833 110.5,197.5 Z"/></g>
<g><path style="opacity:0.533" fill="#f5f6f4" d="M 98.5,215.5 C 99.8333,216.167 99.8333,216.167 98.5,215.5 Z"/></g>
<g><path style="opacity:1" fill="#e8e9e6" d="M 26.5,219.5 C 25.8333,220.167 25.8333,220.167 26.5,219.5 Z"/></g>
<g><path style="opacity:0.267" fill="#fafbf9" d="M 29.5,223.5 C 30.8333,224.167 30.8333,224.167 29.5,223.5 Z"/></g>
<g><path style="opacity:0.667" fill="#f2f3f1" d="M 107.5,223.5 C 108.833,224.167 108.833,224.167 107.5,223.5 Z"/></g>
<g><path style="opacity:1" fill="#a2a2a1" d="M 77.5,223.5 C 77.56,222.957 77.8933,222.624 78.5,222.5C 79.4519,224.045 79.7852,225.712 79.5,227.5C 78.8333,226.167 78.1667,224.833 77.5,223.5 Z"/></g>
</svg>
